<svg data-v-fde0c5aa="" xmlns="http://www.w3.org/2000/svg" viewBox="0 0 300 300" class="iconAbove"><!----><defs data-v-fde0c5aa=""><!----></defs><rect data-v-fde0c5aa="" fill="#E0EAEF" x="0" y="0" width="300px" height="300px" class="logo-background-square"></rect><defs data-v-fde0c5aa=""><!----></defs><g data-v-fde0c5aa="" id="583a7b98-e7e3-4b7b-8b4a-0c7f448bbdbf" fill="#012F41" transform="matrix(4.041660553939398,0,0,4.041660553939398,15.917922879065458,165.68894810113687)"><path d="M9.06 11.88L9.06 12.68L9.06 12.68Q8.67 13.02 8.22 13.23L8.22 13.23L8.22 13.23Q7.77 13.45 7.31 13.57L7.31 13.57L7.31 13.57Q6.86 13.69 6.44 13.74L6.44 13.74L6.44 13.74Q6.02 13.78 5.69 13.78L5.69 13.78L5.69 13.78Q4.70 13.78 3.85 13.43L3.85 13.43L3.85 13.43Q2.99 13.08 2.36 12.43L2.36 12.43L2.36 12.43Q1.73 11.79 1.37 10.89L1.37 10.89L1.37 10.89Q1.01 9.98 1.01 8.87L1.01 8.87L1.01 8.87Q1.01 8.03 1.22 7.31L1.22 7.31L1.22 7.31Q1.42 6.58 1.79 5.99L1.79 5.99L1.79 5.99Q2.16 5.39 2.67 4.93L2.67 4.93L2.67 4.93Q3.17 4.46 3.78 4.15L3.78 4.15L3.78 4.15Q4.39 3.83 5.07 3.66L5.07 3.66L5.07 3.66Q5.76 3.49 6.47 3.49L6.47 3.49L6.47 3.49Q6.95 3.49 7.61 3.58L7.61 3.58L7.61 3.58Q8.27 3.66 9.03 3.89L9.03 3.89L8.80 5.08L8.66 5.15L8.66 5.15Q7.91 4.81 7.26 4.68L7.26 4.68L7.26 4.68Q6.62 4.55 6.17 4.55L6.17 4.55L6.17 4.55Q5.35 4.55 4.66 4.87L4.66 4.87L4.66 4.87Q3.96 5.19 3.47 5.74L3.47 5.74L3.47 5.74Q2.97 6.29 2.69 7.02L2.69 7.02L2.69 7.02Q2.41 7.75 2.41 8.58L2.41 8.58L2.41 8.58Q2.41 9.37 2.66 10.11L2.66 10.11L2.66 10.11Q2.91 10.86 3.39 11.43L3.39 11.43L3.39 11.43Q3.88 12.00 4.59 12.34L4.59 12.34L4.59 12.34Q5.30 12.69 6.22 12.69L6.22 12.69L6.22 12.69Q6.49 12.69 6.81 12.65L6.81 12.65L6.81 12.65Q7.13 12.62 7.49 12.53L7.49 12.53L7.49 12.53Q7.85 12.43 8.25 12.28L8.25 12.28L8.25 12.28Q8.65 12.13 9.06 11.88L9.06 11.88ZM16.63 13.64L11.35 13.64L11.35 3.63L12.69 3.63L12.69 12.58L16.84 12.58L16.63 13.64ZM25.68 13.64L24.73 10.92L20.41 10.92L19.47 13.64L18.20 13.64L21.93 3.63L23.35 3.63L27.08 13.64L25.68 13.64ZM20.77 9.88L24.35 9.88L23.02 5.97L22.63 4.57L22.50 4.57L22.11 5.97L20.77 9.88ZM32.29 9.65L30.45 9.65L30.45 13.64L29.11 13.64L29.11 3.63L31.94 3.63L31.94 3.63Q32.68 3.63 33.30 3.83L33.30 3.83L33.30 3.83Q33.91 4.04 34.35 4.40L34.35 4.40L34.35 4.40Q34.79 4.76 35.03 5.24L35.03 5.24L35.03 5.24Q35.27 5.73 35.27 6.29L35.27 6.29L35.27 6.29Q35.27 6.78 35.10 7.21L35.10 7.21L35.10 7.21Q34.92 7.64 34.63 7.99L34.63 7.99L34.63 7.99Q34.34 8.35 33.98 8.64L33.98 8.64L33.98 8.64Q33.61 8.93 33.24 9.14L33.24 9.14L36.19 13.64L34.58 13.64L32.29 9.65ZM30.45 4.69L30.45 8.59L32.68 8.59L32.68 8.59Q32.96 8.44 33.19 8.21L33.19 8.21L33.19 8.21Q33.42 7.98 33.58 7.71L33.58 7.71L33.58 7.71Q33.74 7.44 33.82 7.14L33.82 7.14L33.82 7.14Q33.91 6.84 33.91 6.53L33.91 6.53L33.91 6.53Q33.91 6.14 33.77 5.80L33.77 5.80L33.77 5.80Q33.63 5.46 33.36 5.22L33.36 5.22L33.36 5.22Q33.08 4.97 32.66 4.83L32.66 4.83L32.66 4.83Q32.25 4.69 31.68 4.69L31.68 4.69L30.45 4.69ZM39.51 3.63L39.51 13.64L38.17 13.64L38.17 3.63L39.51 3.63ZM46.19 13.64L44.48 13.64L40.15 8.59L44.28 3.63L45.78 3.63L41.47 8.42L46.19 13.64ZM49.50 3.63L49.50 13.64L48.16 13.64L48.16 3.63L49.50 3.63ZM56.18 13.64L54.47 13.64L50.13 8.59L54.26 3.63L55.77 3.63L51.46 8.42L56.18 13.64ZM65.34 3.63L61.85 9.26L61.85 13.64L60.51 13.64L60.51 9.27L57.20 3.63L58.73 3.63L60.65 7.24L61.26 8.58L61.39 8.58L62.04 7.25L64.00 3.63L65.34 3.63Z"></path></g><defs data-v-fde0c5aa=""><linearGradient data-v-fde0c5aa="" gradientTransform="rotate(25)" id="ef78b4c0-41bd-4bc6-9f29-f9b69092bfef" x1="0%" y1="0%" x2="100%" y2="0%"><stop data-v-fde0c5aa="" offset="0%" stop-color="#08C7D6" stop-opacity="1"></stop><stop data-v-fde0c5aa="" offset="100%" stop-color="#02023E" stop-opacity="1"></stop></linearGradient></defs><g data-v-fde0c5aa="" id="cbbf530a-8a41-431b-aa7f-94472860d1d9" stroke="none" fill="url(#ef78b4c0-41bd-4bc6-9f29-f9b69092bfef)" transform="matrix(2.5992929341162054,0,0,2.5992929341162054,108.41131305414072,78.61696958121107)"><path d="M16 32c8.837 0 16-7.163 16-16S24.837 0 16 0 0 7.163 0 16s7.163 16 16 16zM8.858 6.858h2v14.283h14.283v2H8.858V6.858z"></path></g><!----></svg>